<?xml version="1.0" encoding="UTF-8" standalone="no"?>
<!-- Created with Inkscape (http://www.inkscape.org/) -->

<svg
   xmlns:dc="http://purl.org/dc/elements/1.1/"
   xmlns:cc="http://creativecommons.org/ns#"
   xmlns:rdf="http://www.w3.org/1999/02/22-rdf-syntax-ns#"
   xmlns:svg="http://www.w3.org/2000/svg"
   xmlns="http://www.w3.org/2000/svg"
   xmlns:sodipodi="http://sodipodi.sourceforge.net/DTD/sodipodi-0.dtd"
   xmlns:inkscape="http://www.inkscape.org/namespaces/inkscape"
   width="210mm"
   height="297mm"
   viewBox="0 0 210 297"
   version="1.1"
   id="svg8"
   inkscape:version="0.92.5 (2060ec1f9f, 2020-04-08)"
   sodipodi:docname="cards.svg">
  <defs
     id="defs2" />
  <sodipodi:namedview
     id="base"
     pagecolor="#ffffff"
     bordercolor="#666666"
     borderopacity="1.0"
     inkscape:pageopacity="0.0"
     inkscape:pageshadow="2"
     inkscape:zoom="1.4142136"
     inkscape:cx="221.19839"
     inkscape:cy="588.29916"
     inkscape:document-units="mm"
     inkscape:current-layer="layer1"
     showgrid="false"
     inkscape:window-width="2560"
     inkscape:window-height="1375"
     inkscape:window-x="0"
     inkscape:window-y="0"
     inkscape:window-maximized="1" />
  <metadata
     id="metadata5">
    <rdf:RDF>
      <cc:Work
         rdf:about="">
        <dc:format>image/svg+xml</dc:format>
        <dc:type
           rdf:resource="http://purl.org/dc/dcmitype/StillImage" />
        <dc:title />
      </cc:Work>
    </rdf:RDF>
  </metadata>
  <g
     inkscape:label="Layer 1"
     inkscape:groupmode="layer"
     id="layer1">
    <path
       style="fill:#002ccd;fill-opacity:1;stroke:none;stroke-width:0.37795275;stroke-linecap:square;stroke-linejoin:miter;stroke-miterlimit:4;stroke-dasharray:none;stroke-opacity:1"
       d="M 394.17969 594.23047 C 390.39939 594.23047 387.28368 596.00277 384.89453 597.79492 C 381.62511 600.28924 379.56375 603.71532 379.44531 608.63281 C 379.28499 615.28885 381.56469 618.27927 384.95312 620.84766 C 378.43348 615.23154 370.92036 615.1998 365.82422 618.39258 C 361.27887 621.24028 358.76649 626.78133 358.87695 631.20703 C 359.09833 640.07693 367.37363 647.42176 377.0918 646.73828 C 383.0469 646.73651 388.56703 644.25282 391.95117 640.16992 C 391.57449 644.19668 391.23321 648.19012 390.56641 652.17773 C 389.62428 656.55685 388.4503 660.8789 386.98438 664.71875 C 386.73946 665.28046 386.4824 665.8428 386.20898 666.40625 C 391.02565 665.7169 397.54438 665.71259 402.21289 666.40625 C 401.93472 665.83297 401.67229 665.26088 401.42383 664.68945 C 400.10205 661.23788 399.00177 657.39608 398.08398 653.47656 C 397.25517 649.02637 396.88348 644.57577 396.46289 640.08203 C 399.84037 644.21667 405.39528 646.73649 411.39258 646.73828 C 421.11073 647.42177 429.38594 640.07694 429.60742 631.20703 C 429.7179 626.78132 427.20553 621.2403 422.66016 618.39258 C 417.56403 615.19982 410.05094 615.23151 403.53125 620.84766 C 406.91971 618.27924 409.19931 615.28886 409.03906 608.63281 C 408.92061 603.71534 406.85929 600.28926 403.58984 597.79492 C 400.32869 595.76433 397.95999 594.23047 394.17969 594.23047 z "
       transform="scale(0.26458333)"
       id="path860" />
    <rect
       style="fill:none;fill-opacity:1;stroke:#040000;stroke-width:1;stroke-miterlimit:4;stroke-dasharray:none;stroke-opacity:1"
       id="rect815"
       width="29.860117"
       height="45.735119"
       x="22.111607"
       y="16.919641"
       rx="1.6036184"
       ry="1.6036184" />
    <path
       style="fill:#dd2c0b;fill-opacity:1;stroke:none;stroke-width:0.99999994;stroke-miterlimit:4;stroke-dasharray:none;stroke-opacity:1"
       d="m 36.842983,59.866776 c -1.840248,-4.507121 -7.512866,-10.25553 -9.769872,-13.635224 -0.564173,-0.951446 -0.863059,-2.036705 -0.865557,-3.14284 1.15e-4,-3.418435 2.773835,-6.315298 6.189942,-6.189158 1.971664,0.0728 4.104568,2.331454 4.60389,3.344179 0.420755,-0.698513 1.848138,-3.200489 4.324756,-3.344179 3.412391,-0.197983 6.189038,2.771028 6.189153,6.189158 -0.0017,1.50263 -0.550138,2.953293 -1.542774,4.081373 -4.277003,4.685442 -6.776514,8.292203 -9.129538,12.696691 z"
       id="path817"
       inkscape:connector-curvature="0"
       sodipodi:nodetypes="cccscsccc" />
    <flowRoot
       xml:space="preserve"
       id="flowRoot827"
       style="font-style:normal;font-weight:normal;font-size:10.58333302px;line-height:1.25;font-family:sans-serif;text-align:center;letter-spacing:0px;word-spacing:0px;text-anchor:middle;fill:#000000;fill-opacity:1;stroke:none;stroke-width:0.26458332"
       transform="translate(0.52916667)"><flowRegion
         id="flowRegion829"
         style="text-align:center;text-anchor:middle;stroke-width:0.26458332"><rect
           id="rect831"
           width="21.26116"
           height="15.874998"
           x="26.36384"
           y="20.793898"
           style="text-align:center;text-anchor:middle;stroke-width:0.26458332" /></flowRegion><flowPara
         id="flowPara833"
         style="font-style:normal;font-variant:normal;font-weight:bold;font-stretch:normal;font-size:12.69999981px;font-family:sans-serif;-inkscape-font-specification:'sans-serif Bold';stroke-width:0.26458332">13</flowPara></flowRoot>    <rect
       ry="1.6036184"
       rx="1.6036184"
       y="16.919641"
       x="58.192993"
       height="45.735119"
       width="29.860117"
       id="rect835"
       style="fill:none;fill-opacity:1;stroke:#040000;stroke-width:1;stroke-miterlimit:4;stroke-dasharray:none;stroke-opacity:1" />
    <flowRoot
       transform="translate(36.610553)"
       style="font-style:normal;font-weight:normal;font-size:10.58333302px;line-height:1.25;font-family:sans-serif;text-align:center;letter-spacing:0px;word-spacing:0px;text-anchor:middle;fill:#000000;fill-opacity:1;stroke:none;stroke-width:0.26458332"
       id="flowRoot845"
       xml:space="preserve"><flowRegion
         style="text-align:center;text-anchor:middle;stroke-width:0.26458332"
         id="flowRegion841"><rect
           style="text-align:center;text-anchor:middle;stroke-width:0.26458332"
           y="20.793898"
           x="26.36384"
           height="15.874998"
           width="21.26116"
           id="rect839" /></flowRegion><flowPara
         style="font-style:normal;font-variant:normal;font-weight:bold;font-stretch:normal;font-size:12.69999981px;font-family:sans-serif;-inkscape-font-specification:'sans-serif Bold';stroke-width:0.26458332"
         id="flowPara843">5</flowPara></flowRoot>    <path
       style="fill:#ddb10b;fill-opacity:1;stroke:none;stroke-width:1;stroke-miterlimit:4;stroke-dasharray:none;stroke-opacity:1"
       d="m 72.897303,36.814179 c 2.643374,4.110773 5.415099,8.192405 11.539831,11.512766 -4.376023,2.724179 -8.395807,6.190983 -11.512765,11.539831 C 70.053418,55.24678 66.536947,51.144443 61.384538,48.35401 66.312687,45.366292 70.150276,41.519681 72.897303,36.814179 Z"
       id="rect847"
       inkscape:connector-curvature="0"
       sodipodi:nodetypes="ccccc" />
    <rect
       style="fill:none;fill-opacity:1;stroke:#040000;stroke-width:1;stroke-miterlimit:4;stroke-dasharray:none;stroke-opacity:1"
       id="rect852"
       width="29.860117"
       height="45.735119"
       x="93.205299"
       y="16.919641"
       rx="1.6036184"
       ry="1.6036184" />
    <flowRoot
       xml:space="preserve"
       id="flowRoot860"
       style="font-style:normal;font-weight:normal;font-size:10.58333302px;line-height:1.25;font-family:sans-serif;text-align:center;letter-spacing:0px;word-spacing:0px;text-anchor:middle;fill:#000000;fill-opacity:1;stroke:none;stroke-width:0.26458332"
       transform="translate(71.622861)"><flowRegion
         id="flowRegion856"
         style="text-align:center;text-anchor:middle;stroke-width:0.26458332"><rect
           id="rect854"
           width="21.26116"
           height="15.874998"
           x="26.36384"
           y="20.793898"
           style="text-align:center;text-anchor:middle;stroke-width:0.26458332" /></flowRegion><flowPara
         id="flowPara858"
         style="font-style:normal;font-variant:normal;font-weight:bold;font-stretch:normal;font-size:12.69999981px;font-family:sans-serif;-inkscape-font-specification:'sans-serif Bold';stroke-width:0.26458332">11</flowPara></flowRoot>    <path
       style="fill:#00810b;fill-opacity:1;stroke:none;stroke-width:3.77952743;stroke-miterlimit:4;stroke-dasharray:none;stroke-opacity:1"
       d="M 408.45508 139.42773 C 398.14948 152.5516 378.87813 166.71269 371.5293 175.07617 C 369.39699 177.5637 368.26725 180.40101 368.25781 183.29297 C 368.25825 192.23036 378.74106 199.8044 391.65234 199.47461 C 395.33369 199.38058 399.16131 197.89154 402.32227 196.08984 L 402.32227 209.12695 L 390.71484 209.12695 L 390.71484 215.37695 L 424.82227 215.37695 L 424.82227 209.12695 L 414.46484 209.12695 L 414.46484 195.74805 C 417.16788 197.61756 420.8021 199.29014 425.39844 199.47461 C 438.29566 199.99223 448.7906 192.22957 448.79102 183.29297 C 448.78346 179.36439 446.71265 175.57238 442.96094 172.62305 C 424.78285 155.67601 416.64392 149.29926 408.45508 139.42773 z "
       transform="scale(0.26458333)"
       id="path864" />
    <rect
       ry="1.6036184"
       rx="1.6036184"
       y="16.919641"
       x="130.05798"
       height="45.735119"
       width="29.860117"
       id="rect871"
       style="fill:none;fill-opacity:1;stroke:#040000;stroke-width:1;stroke-miterlimit:4;stroke-dasharray:none;stroke-opacity:1" />
    <flowRoot
       transform="translate(108.47554)"
       style="font-style:normal;font-weight:normal;font-size:10.58333302px;line-height:1.25;font-family:sans-serif;text-align:center;letter-spacing:0px;word-spacing:0px;text-anchor:middle;fill:#000000;fill-opacity:1;stroke:none;stroke-width:0.26458332"
       id="flowRoot879"
       xml:space="preserve"><flowRegion
         style="text-align:center;text-anchor:middle;stroke-width:0.26458332"
         id="flowRegion875"><rect
           style="text-align:center;text-anchor:middle;stroke-width:0.26458332"
           y="20.793898"
           x="26.36384"
           height="15.874998"
           width="21.26116"
           id="rect873" /></flowRegion><flowPara
         style="font-style:normal;font-variant:normal;font-weight:bold;font-stretch:normal;font-size:12.69999981px;font-family:sans-serif;-inkscape-font-specification:'sans-serif Bold';stroke-width:0.26458332"
         id="flowPara877">1</flowPara></flowRoot>    <path
       style="fill:#002ccd;fill-opacity:1;stroke:none;stroke-width:3.77952743;stroke-miterlimit:4;stroke-dasharray:none;stroke-opacity:1"
       d="M 547.39844 139.83203 A 12.942579 12.942579 0 0 0 534.45703 152.77539 A 12.942579 12.942579 0 0 0 541.60742 164.33398 L 541.60742 172.53711 L 535.50391 172.53711 A 12.942579 12.942579 0 0 0 524.33203 166.09766 A 12.942579 12.942579 0 0 0 511.39062 179.03906 A 12.942579 12.942579 0 0 0 524.33203 191.98242 A 12.942579 12.942579 0 0 0 535.04492 186.30078 L 541.60742 186.30078 L 541.60742 209.12695 L 530 209.12695 L 530 215.37695 L 564.10742 215.37695 L 564.10742 209.12695 L 553.75 209.12695 L 553.75 186.30078 L 560.27148 186.30078 A 12.942579 12.942579 0 0 0 570.9707 191.98242 A 12.942579 12.942579 0 0 0 583.91406 179.03906 A 12.942579 12.942579 0 0 0 570.9707 166.09766 A 12.942579 12.942579 0 0 0 559.79492 172.53711 L 553.75 172.53711 L 553.75 164.03516 A 12.942579 12.942579 0 0 0 560.3418 152.77539 A 12.942579 12.942579 0 0 0 547.39844 139.83203 z "
       transform="scale(0.26458333)"
       id="path881" />
    <rect
       style="fill:none;fill-opacity:1;stroke:#040000;stroke-width:1;stroke-miterlimit:4;stroke-dasharray:none;stroke-opacity:1"
       id="rect920"
       width="29.860117"
       height="45.735119"
       x="58.192993"
       y="69.363838"
       rx="1.6036184"
       ry="1.6036184" />
    <flowRoot
       xml:space="preserve"
       id="flowRoot928"
       style="font-style:normal;font-weight:normal;font-size:10.58333302px;line-height:1.25;font-family:sans-serif;text-align:center;letter-spacing:0px;word-spacing:0px;text-anchor:middle;fill:#000000;fill-opacity:1;stroke:none;stroke-width:0.26458332"
       transform="translate(36.610553,52.444197)"><flowRegion
         id="flowRegion924"
         style="text-align:center;text-anchor:middle;stroke-width:0.26458332"><rect
           id="rect922"
           width="21.26116"
           height="15.874998"
           x="26.36384"
           y="20.793898"
           style="text-align:center;text-anchor:middle;stroke-width:0.26458332" /></flowRegion><flowPara
         id="flowPara926"
         style="font-style:normal;font-variant:normal;font-weight:bold;font-stretch:normal;font-size:12.69999981px;font-family:sans-serif;-inkscape-font-specification:'sans-serif Bold';stroke-width:0.26458332">Z</flowPara></flowRoot>    <rect
       ry="1.6036184"
       rx="1.6036184"
       y="69.363838"
       x="93.205299"
       height="45.735119"
       width="29.860117"
       id="rect932"
       style="fill:none;fill-opacity:1;stroke:#040000;stroke-width:1;stroke-miterlimit:4;stroke-dasharray:none;stroke-opacity:1" />
    <flowRoot
       transform="translate(71.622861,52.444197)"
       style="font-style:normal;font-weight:normal;font-size:10.58333302px;line-height:1.25;font-family:sans-serif;text-align:center;letter-spacing:0px;word-spacing:0px;text-anchor:middle;fill:#000000;fill-opacity:1;stroke:none;stroke-width:0.26458332"
       id="flowRoot940"
       xml:space="preserve"><flowRegion
         style="text-align:center;text-anchor:middle;stroke-width:0.26458332"
         id="flowRegion936"><rect
           style="text-align:center;text-anchor:middle;stroke-width:0.26458332"
           y="20.793898"
           x="26.36384"
           height="15.874998"
           width="21.26116"
           id="rect934" /></flowRegion><flowPara
         style="font-style:normal;font-variant:normal;font-weight:bold;font-stretch:normal;font-size:12.69999981px;font-family:sans-serif;-inkscape-font-specification:'sans-serif Bold';stroke-width:0.26458332"
         id="flowPara938">N</flowPara></flowRoot>    <path
       style="color:#000000;font-style:normal;font-variant:normal;font-weight:normal;font-stretch:normal;font-size:medium;line-height:normal;font-family:sans-serif;font-variant-ligatures:normal;font-variant-position:normal;font-variant-caps:normal;font-variant-numeric:normal;font-variant-alternates:normal;font-feature-settings:normal;text-indent:0;text-align:start;text-decoration:none;text-decoration-line:none;text-decoration-style:solid;text-decoration-color:#000000;letter-spacing:normal;word-spacing:normal;text-transform:none;writing-mode:lr-tb;direction:ltr;text-orientation:mixed;dominant-baseline:auto;baseline-shift:baseline;text-anchor:start;white-space:normal;shape-padding:0;clip-rule:nonzero;display:inline;overflow:visible;visibility:visible;opacity:1;isolation:auto;mix-blend-mode:normal;color-interpolation:sRGB;color-interpolation-filters:linearRGB;solid-color:#000000;solid-opacity:1;vector-effect:none;fill:#000000;fill-opacity:1;fill-rule:nonzero;stroke:none;stroke-width:8.93858242;stroke-linecap:butt;stroke-linejoin:miter;stroke-miterlimit:4;stroke-dasharray:none;stroke-dashoffset:0;stroke-opacity:1;color-rendering:auto;image-rendering:auto;shape-rendering:auto;text-rendering:auto;enable-background:accumulate"
       d="M 298.94531 342.95508 L 282.07031 371.41992 L 277.22656 346.48438 L 257.03906 377.11523 L 257.21484 375.85547 L 257.83398 371.42773 L 248.98438 370.1875 L 248.35547 374.61523 L 244.25977 403.82617 L 268.25 390.57617 L 272.16211 388.41211 L 267.83789 380.58789 L 264.08594 382.66211 L 272.62891 369.69922 L 277.78125 396.19336 L 306.62891 347.50977 L 298.94531 342.95508 z "
       transform="scale(0.26458333)"
       id="path944" />
    <path
       id="path952"
       style="fill:#a6a6ae;fill-opacity:1;stroke:none;stroke-width:2.36500001;stroke-linecap:square;stroke-linejoin:miter;stroke-miterlimit:4;stroke-dasharray:none;stroke-opacity:1"
       d="m 117.5479,94.838638 a 4.1760864,4.1760864 0 0 1 -4.17609,4.176087 4.1760864,4.1760864 0 0 1 -4.17609,-4.176087 4.1760864,4.1760864 0 0 1 4.17609,-4.176086 4.1760864,4.1760864 0 0 1 4.17609,4.176086 z m -9.55492,4.643807 a 2.9399648,2.9399648 0 0 1 -2.93996,2.939965 2.9399648,2.9399648 0 0 1 -2.93997,-2.939965 2.9399648,2.9399648 0 0 1 2.93997,-2.939965 2.9399648,2.9399648 0 0 1 2.93996,2.939965 z m -4.47673,6.581515 a 1.9042953,1.9042953 0 0 1 -1.9043,1.90429 1.9042953,1.9042953 0 0 1 -1.904292,-1.90429 1.9042953,1.9042953 0 0 1 1.904292,-1.9043 1.9042953,1.9042953 0 0 1 1.9043,1.9043 z" />
    <path
       sodipodi:nodetypes="cccscsccc"
       inkscape:connector-curvature="0"
       id="path963"
       d="m 37.405023,152.19394 c -1.546452,-3.78756 -6.313435,-8.61823 -8.210109,-11.45835 -0.474103,-0.79955 -0.725272,-1.71155 -0.727371,-2.64109 9.7e-5,-2.87268 2.330992,-5.30706 5.201716,-5.20106 1.656888,0.0612 3.449273,1.95924 3.868878,2.81028 0.353582,-0.587 1.553082,-2.68953 3.634308,-2.81028 2.867602,-0.16638 5.200957,2.32864 5.201053,5.20106 -0.0014,1.26274 -0.462308,2.4818 -1.29647,3.42978 -3.594178,3.93741 -5.694642,6.96835 -7.672005,10.66966 z"
       style="fill:#dd2c0b;fill-opacity:1;stroke:none;stroke-width:0.99999994;stroke-miterlimit:4;stroke-dasharray:none;stroke-opacity:1" />
    <path
       sodipodi:nodetypes="ccccc"
       inkscape:connector-curvature="0"
       id="path974"
       d="m 58.010001,132.8497 c 2.218146,3.4495 4.543997,6.87454 9.683472,9.66077 -3.672073,2.28595 -7.045213,5.19506 -9.66076,9.68347 -2.409115,-3.8768 -5.359907,-7.31921 -9.683472,-9.66077 4.13538,-2.50709 7.355634,-5.73491 9.66076,-9.68347 z"
       style="fill:#ddb10b;fill-opacity:1;stroke:none;stroke-width:1;stroke-miterlimit:4;stroke-dasharray:none;stroke-opacity:1" />
    <path
       id="path985"
       d="m 81.974847,132.89043 c -2.020776,3.33561 -5.799603,6.93484 -7.240602,9.06053 -0.418114,0.63223 -0.639639,1.35338 -0.64149,2.0884 8.8e-5,2.27157 2.055611,4.19661 4.587323,4.11279 0.721858,-0.0239 1.472398,-0.40236 2.092216,-0.86029 v 3.31356 h -2.276047 v 1.58852 h 6.687965 v -1.58852 h -2.030939 v -3.40043 c 0.530026,0.47516 1.242643,0.90027 2.143918,0.94716 2.528955,0.13156 4.586857,-1.84142 4.58694,-4.11279 -0.0015,-0.99849 -0.407538,-1.96229 -1.143194,-2.7119 -3.564455,-4.30731 -5.160378,-5.92805 -6.76609,-8.43703 z"
       style="fill:#00810b;fill-opacity:1;stroke:none;stroke-width:1;stroke-miterlimit:4;stroke-dasharray:none;stroke-opacity:1"
       inkscape:connector-curvature="0" />
    <path
       id="path1023"
       d="m 104.36459,132.87418 a 3.3099172,3.3099172 0 0 0 -3.30962,3.31012 3.3099172,3.3099172 0 0 0 1.82863,2.95598 v 2.09786 h -1.5609 a 3.3099172,3.3099172 0 0 0 -2.857082,-1.64682 3.3099172,3.3099172 0 0 0 -3.309623,3.30962 3.3099172,3.3099172 0 0 0 3.309623,3.31012 3.3099172,3.3099172 0 0 0 2.739702,-1.45302 h 1.67828 v 5.83753 h -2.968472 v 1.59837 h 8.722592 v -1.59837 h -2.64879 v -5.83753 h 1.66779 a 3.3099172,3.3099172 0 0 0 2.7362,1.45302 3.3099172,3.3099172 0 0 0 3.31012,-3.31012 3.3099172,3.3099172 0 0 0 -3.31012,-3.30962 3.3099172,3.3099172 0 0 0 -2.85807,1.64682 h -1.54592 v -2.17428 a 3.3099172,3.3099172 0 0 0 1.68577,-2.87956 3.3099172,3.3099172 0 0 0 -3.31011,-3.31012 z"
       style="fill:#002ccd;fill-opacity:1;stroke:none;stroke-width:1;stroke-miterlimit:4;stroke-dasharray:none;stroke-opacity:1"
       inkscape:connector-curvature="0" />
    <path
       id="path1039"
       d="m 136.54471,132.87568 -5.35552,9.0337 -1.53723,-7.91364 -6.40678,9.72112 0.0558,-0.3998 0.1965,-1.40519 -2.80855,-0.39362 -0.19959,1.40521 -1.29983,9.27049 7.61363,-4.20507 1.24156,-0.68679 -1.37235,-2.48313 -1.19073,0.65829 2.71123,-4.11396 1.63517,8.40828 9.1552,-15.45041 z"
       style="color:#000000;font-style:normal;font-variant:normal;font-weight:normal;font-stretch:normal;font-size:medium;line-height:normal;font-family:sans-serif;font-variant-ligatures:normal;font-variant-position:normal;font-variant-caps:normal;font-variant-numeric:normal;font-variant-alternates:normal;font-feature-settings:normal;text-indent:0;text-align:start;text-decoration:none;text-decoration-line:none;text-decoration-style:solid;text-decoration-color:#000000;letter-spacing:normal;word-spacing:normal;text-transform:none;writing-mode:lr-tb;direction:ltr;text-orientation:mixed;dominant-baseline:auto;baseline-shift:baseline;text-anchor:start;white-space:normal;shape-padding:0;clip-rule:nonzero;display:inline;overflow:visible;visibility:visible;opacity:1;isolation:auto;mix-blend-mode:normal;color-interpolation:sRGB;color-interpolation-filters:linearRGB;solid-color:#000000;solid-opacity:1;vector-effect:none;fill:#000000;fill-opacity:1;fill-rule:nonzero;stroke:none;stroke-width:2.36500001;stroke-linecap:butt;stroke-linejoin:miter;stroke-miterlimit:4;stroke-dasharray:none;stroke-dashoffset:0;stroke-opacity:1;color-rendering:auto;image-rendering:auto;shape-rendering:auto;text-rendering:auto;enable-background:accumulate"
       inkscape:connector-curvature="0" />
    <path
       d="m 165.78717,137.54106 a 4.643679,4.643679 0 0 1 -4.64368,4.64369 4.643679,4.643679 0 0 1 -4.64368,-4.64369 4.643679,4.643679 0 0 1 4.64368,-4.64367 4.643679,4.643679 0 0 1 4.64368,4.64367 z m -10.62477,5.16378 a 3.26915,3.26915 0 0 1 -3.26915,3.26915 3.26915,3.26915 0 0 1 -3.26915,-3.26915 3.26915,3.26915 0 0 1 3.26915,-3.26915 3.26915,3.26915 0 0 1 3.26915,3.26915 z m -4.97799,7.31844 a 2.1175175,2.1175175 0 0 1 -2.11752,2.11752 2.1175175,2.1175175 0 0 1 -2.11752,-2.11752 2.1175175,2.1175175 0 0 1 2.11752,-2.11752 2.1175175,2.1175175 0 0 1 2.11752,2.11752 z"
       style="fill:#a6a6ae;fill-opacity:1;stroke:none;stroke-width:2.36499977;stroke-linecap:square;stroke-linejoin:miter;stroke-miterlimit:4;stroke-dasharray:none;stroke-opacity:1"
       id="path1054"
       inkscape:connector-curvature="0" />
    <rect
       style="fill:none;fill-opacity:1;stroke:#000000;stroke-width:0.1;stroke-linecap:square;stroke-linejoin:miter;stroke-miterlimit:4;stroke-dasharray:none;stroke-opacity:1"
       id="rect855"
       width="19.777946"
       height="19.443859"
       x="65.535156"
       y="157.8934" />
    <path
       style="fill:#00810b;fill-opacity:1;stroke:none;stroke-width:3.77952743;stroke-miterlimit:4;stroke-dasharray:none;stroke-opacity:1"
       d="m 284.82812,596.94727 c -6.68689,11.59279 -21.18875,24.79522 -26.54687,32.8164 -1.41744,2.2899 -2.16755,4.90028 -2.17383,7.5625 2.9e-4,8.22728 6.9681,15.20006 15.55078,14.89649 3.24296,-0.11456 8.63791,-2.4804 10.96289,-4.78711 -1.07442,8.2714 -3.43464,16.56508 -8.65625,22.3164 h 22.26758 c -5.03183,-5.8199 -7.20832,-13.88588 -8.64648,-22.27539 1.85753,2.176 6.67776,4.53344 10.5039,4.7461 8.57335,0.47652 15.5505,-6.66997 15.55078,-14.89649 -0.004,-3.61651 -1.38303,-7.10728 -3.87695,-9.82226 -10.49561,-13.01492 -18.908,-20.76109 -24.93555,-30.55664 z"
       transform="scale(0.26458333)"
       id="path875"
       inkscape:connector-curvature="0"
       sodipodi:nodetypes="ccccccccsccc" />
    <path
       style="color:#000000;font-style:normal;font-variant:normal;font-weight:normal;font-stretch:normal;font-size:medium;line-height:normal;font-family:sans-serif;font-variant-ligatures:normal;font-variant-position:normal;font-variant-caps:normal;font-variant-numeric:normal;font-variant-alternates:normal;font-feature-settings:normal;text-indent:0;text-align:start;text-decoration:none;text-decoration-line:none;text-decoration-style:solid;text-decoration-color:#000000;letter-spacing:normal;word-spacing:normal;text-transform:none;writing-mode:lr-tb;direction:ltr;text-orientation:mixed;dominant-baseline:auto;baseline-shift:baseline;text-anchor:start;white-space:normal;shape-padding:0;clip-rule:nonzero;display:inline;overflow:visible;visibility:visible;opacity:1;isolation:auto;mix-blend-mode:normal;color-interpolation:sRGB;color-interpolation-filters:linearRGB;solid-color:#000000;solid-opacity:1;vector-effect:none;fill:#000000;fill-opacity:1;fill-rule:nonzero;stroke:none;stroke-width:2.36500001;stroke-linecap:butt;stroke-linejoin:miter;stroke-miterlimit:4;stroke-dasharray:none;stroke-dashoffset:0;stroke-opacity:1;color-rendering:auto;image-rendering:auto;shape-rendering:auto;text-rendering:auto;enable-background:accumulate"
       d="m 137.29319,158.60022 -5.35575,9.03408 -1.53737,-7.91373 -6.32468,9.59682 -2.3952,-1.8836 c -0.0756,-0.0682 -0.15504,-0.13272 -0.24288,-0.19069 l -0.19947,1.40509 -1.30018,9.27023 7.61401,-4.20491 1.24126,-0.68678 -2.48047,-1.95027 2.62878,-3.98839 1.63505,8.40828 9.15551,-15.45074 z"
       id="path886"
       inkscape:connector-curvature="0" />
    <path
       style="fill:#dd2c0b;fill-opacity:1;stroke:none;stroke-width:0.99999994;stroke-miterlimit:4;stroke-dasharray:none;stroke-opacity:1"
       d="m 114.67264,215.99118 c -1.54645,-3.78756 -6.31343,-8.61823 -8.21011,-11.45835 -0.4741,-0.79955 -0.72527,-1.71155 -0.72737,-2.64109 1e-4,-2.87268 2.331,-5.30706 5.20172,-5.20106 1.65689,0.0612 3.44927,1.95924 3.86888,2.81028 0.35358,-0.587 1.55308,-2.68953 3.63431,-2.81028 2.8676,-0.16638 5.20095,2.32864 5.20105,5.20106 -0.001,1.26274 -0.46231,2.4818 -1.29647,3.42978 -3.59418,3.93741 -5.69464,6.96835 -7.67201,10.66966 z"
       id="path858"
       inkscape:connector-curvature="0"
       sodipodi:nodetypes="cccscsccc"
       inkscape:export-xdpi="84.191483"
       inkscape:export-ydpi="84.191483" />
    <path
       sodipodi:nodetypes="ccccccccsccc"
       inkscape:connector-curvature="0"
       id="path865"
       d="m 110.42122,200.33094 c -1.2881,2.23313 -4.0816,4.77633 -5.11374,6.32146 -0.27304,0.4411 -0.41754,0.94394 -0.41875,1.45677 6e-5,1.58482 1.34227,2.928 2.99556,2.86952 0.6247,-0.0221 1.66393,-0.4778 2.11179,-0.92215 -0.20696,1.59333 -0.66162,3.19094 -1.66746,4.29883 h 4.28942 c -0.96928,-1.12109 -1.38854,-2.67485 -1.66557,-4.29093 0.35781,0.41916 1.28634,0.87328 2.02337,0.91425 1.65149,0.0918 2.99551,-1.28484 2.99556,-2.86952 -8e-4,-0.69665 -0.26641,-1.36908 -0.74682,-1.89207 -2.02178,-2.50708 -3.64226,-3.99923 -4.80336,-5.88616 z"
       style="fill:#00810b;fill-opacity:1;stroke:none;stroke-width:0.99999994;stroke-miterlimit:4;stroke-dasharray:none;stroke-opacity:1"
       inkscape:export-xdpi="84.191483"
       inkscape:export-ydpi="84.191483" />
    <path
       inkscape:connector-curvature="0"
       id="path861"
       d="m 119.55544,198.89057 -2.91794,4.92199 -0.8376,-4.3116 -3.44584,5.22859 -1.30497,-1.02623 c -0.0412,-0.0372 -0.0845,-0.0723 -0.13232,-0.1039 l -0.10868,0.76553 -0.70837,5.05065 4.1483,-2.29094 0.67627,-0.37417 -1.35142,-1.06256 1.43222,-2.17297 0.89082,4.58104 4.98815,-8.41795 z"
       style="color:#000000;font-style:normal;font-variant:normal;font-weight:normal;font-stretch:normal;font-size:medium;line-height:normal;font-family:sans-serif;font-variant-ligatures:normal;font-variant-position:normal;font-variant-caps:normal;font-variant-numeric:normal;font-variant-alternates:normal;font-feature-settings:normal;text-indent:0;text-align:start;text-decoration:none;text-decoration-line:none;text-decoration-style:solid;text-decoration-color:#000000;letter-spacing:normal;word-spacing:normal;text-transform:none;writing-mode:lr-tb;direction:ltr;text-orientation:mixed;dominant-baseline:auto;baseline-shift:baseline;text-anchor:start;white-space:normal;shape-padding:0;clip-rule:nonzero;display:inline;overflow:visible;visibility:visible;opacity:1;isolation:auto;mix-blend-mode:normal;color-interpolation:sRGB;color-interpolation-filters:linearRGB;solid-color:#000000;solid-opacity:1;vector-effect:none;fill:#000000;fill-opacity:1;fill-rule:nonzero;stroke:none;stroke-width:2.36500001;stroke-linecap:butt;stroke-linejoin:miter;stroke-miterlimit:4;stroke-dasharray:none;stroke-dashoffset:0;stroke-opacity:1;color-rendering:auto;image-rendering:auto;shape-rendering:auto;text-rendering:auto;enable-background:accumulate"
       inkscape:export-xdpi="84.191483"
       inkscape:export-ydpi="84.191483" />
  </g>
</svg>
