<?xml version="1.0" encoding="UTF-8" standalone="no"?>
<!-- Created with Inkscape (http://www.inkscape.org/) -->

<svg
   xmlns:dc="http://purl.org/dc/elements/1.1/"
   xmlns:cc="http://creativecommons.org/ns#"
   xmlns:rdf="http://www.w3.org/1999/02/22-rdf-syntax-ns#"
   xmlns:svg="http://www.w3.org/2000/svg"
   xmlns="http://www.w3.org/2000/svg"
   xmlns:sodipodi="http://sodipodi.sourceforge.net/DTD/sodipodi-0.dtd"
   xmlns:inkscape="http://www.inkscape.org/namespaces/inkscape"
   width="50mm"
   height="50mm"
   viewBox="0 0 50 50"
   version="1.1"
   id="svg879"
   inkscape:version="0.92.5 (2060ec1f9f, 2020-04-08)"
   sodipodi:docname="jester.svg">
  <defs
     id="defs873" />
  <sodipodi:namedview
     id="base"
     pagecolor="#ffffff"
     bordercolor="#666666"
     borderopacity="1.0"
     inkscape:pageopacity="0.0"
     inkscape:pageshadow="2"
     inkscape:zoom="2.8"
     inkscape:cx="263.3105"
     inkscape:cy="-4.8499937"
     inkscape:document-units="mm"
     inkscape:current-layer="layer1"
     showgrid="false"
     inkscape:window-width="2560"
     inkscape:window-height="1375"
     inkscape:window-x="0"
     inkscape:window-y="0"
     inkscape:window-maximized="1" />
  <metadata
     id="metadata876">
    <rdf:RDF>
      <cc:Work
         rdf:about="">
        <dc:format>image/svg+xml</dc:format>
        <dc:type
           rdf:resource="http://purl.org/dc/dcmitype/StillImage" />
        <dc:title></dc:title>
      </cc:Work>
    </rdf:RDF>
  </metadata>
  <g
     inkscape:label="Layer 1"
     inkscape:groupmode="layer"
     id="layer1">
    <path
       d="M 49.889882,12.497489 A 11.655525,11.655525 0 0 1 38.234354,24.153041 11.655525,11.655525 0 0 1 26.578826,12.497489 11.655525,11.655525 0 0 1 38.234354,0.84198583 11.655525,11.655525 0 0 1 49.889882,12.497489 Z M 23.22196,25.458455 a 8.2054899,8.2054899 0 0 1 -8.20549,8.20549 8.2054899,8.2054899 0 0 1 -8.2054896,-8.20549 8.2054899,8.2054899 0 0 1 8.2054896,-8.20549 8.2054899,8.2054899 0 0 1 8.20549,8.20549 z M 10.727322,43.827567 A 5.3149192,5.3149192 0 0 1 5.4123939,49.142493 5.3149192,5.3149192 0 0 1 0.09746859,43.827567 5.3149192,5.3149192 0 0 1 5.4123939,38.512642 5.3149192,5.3149192 0 0 1 10.727322,43.827567 Z"
       style="fill:#a6a6ae;fill-opacity:1;stroke:none;stroke-width:2.36499977;stroke-linecap:square;stroke-linejoin:miter;stroke-miterlimit:4;stroke-dasharray:none;stroke-opacity:1"
       id="path1054"
       inkscape:connector-curvature="0" />
  </g>
</svg>
