<?xml version="1.0" encoding="UTF-8" standalone="no"?>
<!-- Created with Inkscape (http://www.inkscape.org/) -->

<svg
   xmlns:dc="http://purl.org/dc/elements/1.1/"
   xmlns:cc="http://creativecommons.org/ns#"
   xmlns:rdf="http://www.w3.org/1999/02/22-rdf-syntax-ns#"
   xmlns:svg="http://www.w3.org/2000/svg"
   xmlns="http://www.w3.org/2000/svg"
   xmlns:sodipodi="http://sodipodi.sourceforge.net/DTD/sodipodi-0.dtd"
   xmlns:inkscape="http://www.inkscape.org/namespaces/inkscape"
   width="50mm"
   height="50mm"
   viewBox="0 0 50 50"
   version="1.1"
   id="svg879"
   inkscape:version="0.92.5 (2060ec1f9f, 2020-04-08)"
   sodipodi:docname="spade.svg">
  <defs
     id="defs873" />
  <sodipodi:namedview
     id="base"
     pagecolor="#ffffff"
     bordercolor="#666666"
     borderopacity="1.0"
     inkscape:pageopacity="0.0"
     inkscape:pageshadow="2"
     inkscape:zoom="2.8"
     inkscape:cx="263.3105"
     inkscape:cy="-4.8499937"
     inkscape:document-units="mm"
     inkscape:current-layer="layer1"
     showgrid="false"
     inkscape:window-width="2560"
     inkscape:window-height="1375"
     inkscape:window-x="0"
     inkscape:window-y="0"
     inkscape:window-maximized="1" />
  <metadata
     id="metadata876">
    <rdf:RDF>
      <cc:Work
         rdf:about="">
        <dc:format>image/svg+xml</dc:format>
        <dc:type
           rdf:resource="http://purl.org/dc/dcmitype/StillImage" />
        <dc:title></dc:title>
      </cc:Work>
    </rdf:RDF>
  </metadata>
  <g
     inkscape:label="Layer 1"
     inkscape:groupmode="layer"
     id="layer1">
    <path
       style="fill:#00810b;fill-opacity:1;stroke:none;stroke-width:1;stroke-miterlimit:4;stroke-dasharray:none;stroke-opacity:1"
       d="M 25.151149,0.09518411 C 20.559348,8.0558012 10.601109,17.121738 6.9217582,22.629778 5.9484207,24.202221 5.4333289,25.994733 5.4290154,27.822844 5.4292152,33.47241 10.213921,38.260526 16.107538,38.05207 c 2.226898,-0.07867 5.93154,-1.70326 7.528073,-3.287248 -0.737791,5.679864 -2.358523,11.375024 -5.944135,15.324382 H 32.98233 c -3.45529,-3.99645 -4.949857,-9.535254 -5.937423,-15.296219 1.275543,1.49423 4.58553,3.113055 7.212891,3.259085 5.887206,0.327219 10.678325,-4.580182 10.678517,-10.229226 -0.0029,-2.483408 -0.94971,-4.880474 -2.662253,-6.744814 C 35.066865,12.140854 29.290188,6.8216619 25.151149,0.09518411 Z"
       id="path875"
       inkscape:connector-curvature="0"
       sodipodi:nodetypes="ccccccccsccc" />
  </g>
</svg>
